<?xml version="1.0" encoding="UTF-8"?><svg id="a" xmlns="http://www.w3.org/2000/svg" viewBox="0 0 880 380"><path d="M162.76,33.28v158.14c0,9.07,10.95,13.63,17.39,7.24l49.8-49.4c1.93-1.92,3.02-4.52,3.02-7.24V33.28c0-5.63,4.57-10.2,10.2-10.2h57c5.63,0,10.2,4.57,10.2,10.2v294.59c0,5.63-4.57,10.2-10.2,10.2h-57c-5.63,0-10.2-4.57-10.2-10.2v-150.27c0-9.11-11.03-13.65-17.44-7.19l-49.8,50.19c-1.9,1.91-2.96,4.49-2.96,7.19v100.08c0,5.63-4.57,10.2-10.2,10.2h-57c-5.63,0-10.2-4.57-10.2-10.2V33.28c0-5.63,4.57-10.2,10.2-10.2h57c5.63,0,10.2,4.57,10.2,10.2Z" fill="#253547" stroke-width="0"/><path d="M417.35,100.48h-70c-5.52,0-10-4.48-10-10v-57.4c0-5.52,4.48-10,10-10h237.4c5.52,0,10,4.48,10,10v57.4c0,5.52-4.48,10-10,10h-70c-5.52,0-10,4.48-10,10v217.6c0,5.52-4.48,10-10,10h-57.4c-5.52,0-10-4.48-10-10V110.48c0-5.52-4.48-10-10-10Z" fill="#253547" stroke-width="0"/><path d="M690.15,212.97c0,34.65,2.25,55.8,35.55,55.8,29.51,0,35.7-13.79,37.97-38.54.49-5.32,5.57-8.98,10.78-7.82l56.66,12.63c4.74,1.06,8.02,5.36,7.79,10.21-1.63,34.04-15.48,100.92-113.2,100.92-106.65,0-112.95-79.65-112.95-109.35v-112.5c0-29.7,6.3-109.35,112.95-109.35,97.72,0,111.57,66.87,113.2,100.92.23,4.85-3.05,9.16-7.79,10.21l-54.76,12.2c-6.22,1.39-12.22-2.99-12.87-9.33-2.43-23.53-9.05-36.6-37.79-36.6-33.3,0-35.55,21.15-35.55,55.8v64.8Z" fill="#253547" stroke-width="0"/><circle cx="85.36" cy="138.18" r="35" fill="#3c6" stroke-width="0"/><circle cx="310.35" cy="237.27" r="35" fill="#3c6" stroke-width="0"/><path d="M161.9,289.46l86.14-140.85c13.18-21.55,6.39-49.71-15.16-62.89h0s-86.14,140.85-86.14,140.85c-13.18,21.55-6.39,49.71,15.16,62.89h0Z" fill="#3c6" stroke-width="0"/></svg>